<svg width="379" height="163" viewBox="0 0 379 163" fill="none" xmlns="http://www.w3.org/2000/svg">
<path d="M371.147 21.8038C367.093 17.6359 361.815 15.5859 355.48 15.7141L280.465 14.9302C280.397 14.9227 280.337 14.9076 280.284 14.9001C280.141 14.6061 279.952 14.1389 279.808 13.7771C278.963 11.6894 277.687 8.52394 274.145 5.10978C266.821 -1.9522 260.079 -0.173519 256.719 1.50719C251.313 4.22043 247.764 10.1217 247.688 16.5431L247.371 42.5149C247.326 43.7962 247.205 53.4357 253.117 60.8595H252.709C250.633 60.8595 245.589 61.7488 243.588 69.9564C242.803 73.1897 242.773 76.2798 242.773 76.6264V88.2859C242.773 88.2859 242.773 88.3085 242.773 88.316H91.1502V78.4277C91.1502 74.1996 89.4513 71.6446 88.0243 70.2503C85.1098 67.3939 81.3873 67.2959 80.3152 67.3336H75.3318L33.6376 67.0095C32.4446 66.7457 30.1568 65.7961 29.4773 59.9324V54.2798C29.4773 46.1175 23.9956 39.1686 16.445 37.7667C13.7419 37.2618 11.1294 37.5406 8.66796 38.5882C3.39767 40.8191 -0.00762939 46.2155 -0.00762939 52.3203V108.047C-0.00762939 113.24 2.16693 118.117 5.96486 121.418C8.84162 123.92 12.0204 125.593 15.3275 126.369V146.161C15.3275 155.009 22.0173 162.207 30.2399 162.207H42.6152C47.2135 162.207 51.321 159.953 54.0619 156.426C57.4521 159.999 62.0881 162.207 67.1847 162.207H71.7528C82.1273 162.207 90.5688 153.095 90.5688 141.888V135.474L267.954 135.323V140.501C267.954 149.417 275.671 156.667 285.162 156.667H289.216C294.532 156.667 299.296 154.391 302.452 150.819C305.609 154.391 310.373 156.667 315.689 156.667H319.743C324.681 156.667 329.129 154.7 332.27 151.565C335.411 154.7 339.865 156.667 344.796 156.667H348.851C358.342 156.667 366.058 149.417 366.058 140.501V133.876C366.058 133.439 366.013 133.017 365.945 132.602C368.104 131.54 370.332 130.047 372.325 127.952C376.84 123.211 379.075 116.685 378.977 108.56C378.668 83.3267 378.977 44.173 378.977 43.7962C378.977 43.2309 379.045 29.9134 371.125 21.7812L371.147 21.8038ZM80.4209 76.845H80.6927C80.6927 76.845 81.493 76.9204 81.7573 77.1766C81.8479 77.2671 82.0065 77.6364 82.0065 78.4353V97.8275H82.0291V107.007C82.0291 110.482 78.3671 112.901 75.0826 112.901H63.3038C60.1325 112.901 57.5502 109.962 57.5502 106.359V76.7094L75.3242 76.845H80.436H80.4209ZM11.8543 114.152C10.1403 112.66 9.15874 110.444 9.15874 108.062V52.3354C9.15874 50.1346 10.3593 48.1524 12.1412 47.3987C12.9869 47.0445 13.8703 46.9541 14.8443 47.135C17.9702 47.7153 20.3336 50.7903 20.3336 54.2874V60.2113L20.3638 60.7313C21.6323 72.7676 28.4731 75.7446 32.4371 76.4531L32.8071 76.5209L48.3839 76.6415V92.205H35.0496C27.5292 92.205 21.9569 94.5037 18.5063 99.0409C14.1572 104.754 14.9425 111.771 15.3351 113.986V116.436C14.1497 115.901 12.9869 115.147 11.8618 114.167L11.8543 114.152ZM81.4251 135.527V141.91C81.4251 147.872 77.0911 152.725 71.7679 152.725H67.1998C61.9069 152.725 57.6031 147.932 57.5427 142.023V135.534H81.4251V135.527ZM297.288 140.523C297.288 144.201 293.679 147.193 289.239 147.193H285.184C280.745 147.193 277.135 144.201 277.135 140.523V135.527H297.295V140.523H297.288ZM319.758 147.193H315.704C311.264 147.193 307.655 144.201 307.655 140.523V135.527H327.611V140.523C327.611 140.945 327.634 141.36 327.671 141.775C326.962 144.85 323.692 147.186 319.766 147.186L319.758 147.193ZM356.93 140.523C356.93 144.201 353.32 147.193 348.881 147.193H344.826C340.907 147.193 337.63 144.857 336.921 141.782C336.951 141.368 336.981 140.953 336.981 140.531V135.534H356.937V140.531L356.93 140.523ZM363.098 123.475C359.421 125.683 355.51 125.766 355.495 125.766L59.1208 126.023H56.8556V126.045C52.2875 126.271 48.6104 130.175 48.3914 135.044H48.3688V146.176C48.3688 149.786 45.7865 152.718 42.6152 152.718H30.2399C27.0687 152.718 24.4864 149.779 24.4864 146.176V112.939L24.3656 112.396C24.358 112.351 23.4595 107.851 25.6869 104.92C27.3178 102.779 30.4664 101.701 35.042 101.701H48.3763V106.359C48.3763 115.207 55.0661 122.405 63.2887 122.405H75.0675C82.8446 122.405 91.1729 116.217 91.1729 107.007V97.8275H242.977C247.915 97.8275 251.924 93.5541 251.924 88.2934V76.6491C251.939 74.2825 252.513 71.3808 253.14 70.3709H271.797V89.0622C271.759 90.4188 271.722 100.571 278.155 107.542C282.089 111.808 287.449 113.971 294.094 113.971C296.623 113.971 298.67 111.846 298.67 109.223C298.67 106.6 296.616 104.475 294.094 104.475C290.009 104.475 286.974 103.344 284.807 101.016C280.752 96.6593 280.948 89.4013 280.948 89.3486V67.9968H301.161C300.421 69.8433 300.014 71.8707 300.014 74.0036V80.9601C300.014 89.5144 306.598 96.4708 314.692 96.4708H344.101C352.195 96.4708 358.78 89.5144 358.78 80.9601V70.2654C358.78 65.781 356.869 62.2613 353.396 60.3394C351.342 59.2014 348.994 58.7642 346.819 58.5984V58.5005H265.024C256.16 54.5587 256.5 43.3666 256.515 42.9068L256.832 16.6788C256.87 13.8299 258.38 11.2447 260.69 10.0841C262.261 9.2927 264.496 8.81034 267.901 12.0889C270 14.1087 270.657 15.7367 271.352 17.4626C272.379 19.995 273.919 23.8236 279.718 24.4191L355.518 25.2255H355.593C359.429 25.1426 362.404 26.2203 364.669 28.5341C369.826 33.7948 369.834 43.6228 369.834 43.7283C369.834 44.1202 369.524 83.3719 369.834 108.711C369.924 115.871 367.719 120.702 363.091 123.483L363.098 123.475ZM349.628 70.2579V80.9526C349.628 84.2612 347.152 86.9594 344.109 86.9594H314.699C311.657 86.9594 309.18 84.2688 309.18 80.9526V73.9961C309.18 70.6874 311.657 67.9893 314.699 67.9893H344.109C349.628 67.9893 349.628 68.9917 349.628 70.2579Z" fill="#AD8049"/>
</svg>
